Coordinates
version=1
nRows=9
nColumns=42
inDegrees=yes

Units are S.I. units (second, meters, Newtons, ...)
If the header above contains a line with 'inDegrees', this indicates whether rotational values are in degrees (yes) or radians (no).

endheader
time	pelvis_tilt	pelvis_list	pelvis_rotation	pelvis_tx	pelvis_ty	pelvis_tz	hip_flexion_r	hip_adduction_r	hip_rotation_r	knee_angle_r	knee_adduction_r	knee_angle_r_beta	ankle_angle_r	subtalar_angle_r	mtp_angle_r	hip_flexion_l	hip_adduction_l	hip_rotation_l	knee_angle_l	knee_adduction_l	knee_angle_l_beta	ankle_angle_l	subtalar_angle_l	mtp_angle_l	lumbar_extension	lumbar_bending	lumbar_rotation	arm_flex_r	arm_add_r	arm_rot_r	elbow_flex_r	pro_sup_r	wrist_flex_r	wrist_dev_r	arm_flex_l	arm_add_l	arm_rot_l	elbow_flex_l	pro_sup_l	wrist_flex_l	wrist_dev_l
      2.43000000	     11.81662662	      4.29538962	      3.65849516	      0.62528331	      0.93284300	     -0.28519436	      5.60850248	     -4.57367375	     -5.14143798	     63.39935160	      0.08334519	      1.10652743	      5.95609981	    -14.14048311	     -7.50556944	      1.44439101	      9.02434273	    -28.17383863	     25.73571121	     -9.77948976	      0.44917290	     22.41297729	     25.54817243	     -7.50556944	    -43.92590718	     -7.73953661	     -4.18853563	      3.85797321	     -8.31994057	     12.47801466	     38.85583014	     90.00000001	      0.00000000	      0.00000000	     -3.64534637	    -15.24619673	     17.36994298	     51.94729856	     90.00000001	      0.00000000	      0.00000000
      2.44000000	     11.73042612	      4.25956300	      3.73243937	      0.62945639	      0.93305775	     -0.28553143	      6.86963675	     -4.45555959	     -5.06108079	     62.96498394	     -0.31530553	      1.09894628	      6.51896576	    -14.17337914	     -7.50550957	      1.10430116	      8.97029219	    -28.41428816	     25.48444415	     -9.76591873	      0.44478746	     22.53928557	     25.57670300	     -7.50550957	    -43.94198978	     -7.60817913	     -4.29625369	      3.88314092	     -8.23811567	     12.49410038	     38.92894015	     90.00000001	      0.00000000	      0.00000000	     -3.60758524	    -15.28717647	     17.37526174	     51.89910608	     90.00000001	      0.00000000	      0.00000000
      2.45000000	     11.62584768	      4.29017441	      3.69920031	      0.63367174	      0.93319041	     -0.28572671	      8.16235271	     -4.36550698	     -4.94784179	     62.45104483	     -0.82611154	      1.08997635	      7.27425069	    -14.36628634	     -7.50545533	      0.74885412	      9.04449854	    -28.80363539	     25.10066917	     -9.85584593	      0.43808932	     22.72563397	     25.95495368	     -7.50545533	    -43.91774403	     -7.58133784	     -4.32602785	      3.90952329	     -8.17372050	     12.50996708	     38.96380501	     90.00000001	      0.00000000	      0.00000000	     -3.54431003	    -15.31384849	     17.40881045	     51.77965516	     90.00000001	      0.00000000	      0.00000000
      2.46000000	     11.66926576	      4.30670425	      3.57820328	      0.63817457	      0.93348032	     -0.28576085	      9.22583824	     -4.28844224	     -4.74314797	     61.79096181	     -1.16554703	      1.07845573	      8.13849223	    -14.04735701	     -7.50522865	      0.29080243	      8.93911559	    -30.36934575	     24.73090706	    -10.23735609	      0.43163576	     23.00972498	     28.92480117	     -7.50522865	    -44.00573097	     -7.57869211	     -4.27532599	      3.88753014	     -8.13505573	     12.42593531	     39.12598682	     90.00000001	      0.00000000	      0.00000000	     -3.51397570	    -15.33362086	     17.50951269	     51.62744409	     90.00000001	      0.00000000	      0.00000000
      2.47000000	     11.55738415	      4.34564336	      3.57590339	      0.64246510	      0.93355749	     -0.28601331	     10.40238831	     -4.20920912	     -4.65215687	     60.93943132	     -1.58451914	      1.06359372	      8.69224757	    -14.21423566	     -7.50516668	     -0.06396366	      9.07047218	    -30.52367035	     24.36690115	    -10.28821711	      0.42528265	     23.18312194	     28.94559951	     -7.50516668	    -43.95186544	     -7.53257651	     -4.31874431	      3.87362473	     -8.09557791	     12.44251337	     39.14512491	     90.00000001	      0.00000000	      0.00000000	     -3.52765082	    -15.34798694	     17.52223914	     51.53085521	     90.00000001	      0.00000000	      0.00000000
      2.48000000	     11.67081861	      4.41479094	      3.55635398	      0.64712267	      0.93417956	     -0.28622822	     11.15038140	     -4.21061686	     -4.48653309	     59.79389181	     -1.75920574	      1.04360028	      9.08604111	    -14.38711749	     -7.50502711	     -0.86401628	      9.20774000	    -30.78213981	     23.67295428	    -10.24458541	      0.41317100	     23.23577971	     29.87409149	     -7.50502711	    -44.11322607	     -7.50670886	     -4.36425296	      3.83230594	     -8.05547273	     12.39020622	     39.24106767	     90.00000001	      0.00000000	      0.00000000	     -3.55256996	    -15.36634994	     17.54379318	     51.36687918	     90.00000001	      0.00000000	      0.00000000
      2.49000000	     11.57938104	      4.49019179	      3.56444630	      0.65151761	      0.93425787	     -0.28644334	     12.17277345	     -4.18621571	     -4.35684695	     58.65711311	     -2.03108246	      1.02375975	      9.45603097	    -14.47892674	     -7.50496358	     -1.27471946	      9.42851564	    -30.83732099	     23.23113689	    -10.32980850	      0.40545983	     23.37035225	     29.88817296	     -7.50496358	    -44.07565893	     -7.48653124	     -4.45152134	      3.81187475	     -8.00662425	     12.38017863	     39.29462365	     90.00000001	      0.00000000	      0.00000000	     -3.63511492	    -15.41261335	     17.55407849	     51.27567556	     90.00000001	      0.00000000	      0.00000000
      2.50000000	     11.81974241	      4.57567241	      3.56266130	      0.65635199	      0.93513773	     -0.28669541	     12.58121413	     -4.21269733	     -4.16270484	     57.12803025	     -2.05578426	      0.99707222	      9.59685941	    -14.66893694	     -7.50483519	     -2.36243083	      9.65446043	    -30.68742923	     22.31471107	    -10.15523970	      0.38946518	     23.33594890	     30.45557586	     -7.50483519	    -44.36154215	     -7.43613506	     -4.52918564	      3.77578129	     -7.97489896	     12.29579624	     39.40033770	     90.00000001	      0.00000000	      0.00000000	     -3.70707502	    -15.43026392	     17.55138344	     51.12491502	     90.00000001	      0.00000000	      0.00000000
      2.51000000	     11.71383614	      4.68150268	      3.56079704	      0.66085893	      0.93507263	     -0.28685680	     13.49739404	     -4.23850278	     -4.04814377	     55.73626866	     -2.24753846	      0.97278140	      9.80102850	    -14.67307502	     -7.50477498	     -2.77454516	      9.96144568	    -30.60784298	     21.83564177	    -10.27989749	      0.38110384	     23.46618853	     30.33337939	     -7.50477498	    -44.29418650	     -7.45511277	     -4.63658473	      3.74294662	     -7.92169133	     12.27830185	     39.46647228	     90.00000001	      0.00000000	      0.00000000	     -3.84852396	    -15.49753014	     17.55194075	     51.03387037	     90.00000001	      0.00000000	      0.00000000
